<?xml version="1.0" encoding="UTF-8" standalone="no"?>
<!-- Created with Inkscape (http://www.inkscape.org/) -->

<svg
   width="181.22874mm"
   height="230.22536mm"
   viewBox="0 0 181.22874 230.22536"
   version="1.1"
   id="svg1"
   xml:space="preserve"
   xmlns="http://www.w3.org/2000/svg"
   xmlns:svg="http://www.w3.org/2000/svg"><defs
     id="defs1" /><g
     id="layer1"
     transform="translate(-22.393682,-16.624598)"><path
       style="fill:#000000"
       d="m 146.59015,246.01326 c -1.59237,-0.55911 -3.49054,-1.28431 -4.21814,-1.61156 -3.78471,-1.70224 -7.08098,-1.97081 -10.98021,-0.89466 -1.83637,0.50682 -3.20663,0.70266 -5.08618,0.72693 -2.55297,0.033 -2.57906,0.0268 -3.41123,-0.80341 -0.77149,-0.76969 -0.8367,-0.96972 -0.815,-2.50006 0.0273,-1.92641 1.08524,-4.35631 3.07113,-7.05396 l 1.16664,-1.58477 -5.73091,-0.15952 c -3.152,-0.0877 -8.12815,-0.2359 -11.05813,-0.32925 l -5.32722,-0.16971 -0.10138,2.00757 c -0.094,1.86201 -0.16653,2.07479 -1.00009,2.9348 -0.82865,0.85495 -1.42295,1.20017 -4.383668,2.5464 -5.207214,2.3677 -13.577407,5.01559 -15.837818,5.01026 -1.257381,-0.003 -3.285473,-0.8838 -4.748277,-2.06225 -1.699319,-1.36899 -2.617752,-1.36624 -12.089944,0.0362 -3.578032,0.52975 -4.860894,0.0103 -5.176794,-2.09631 -0.160176,-1.06813 -0.24311,-1.16677 -1.119106,-1.33111 -0.52036,-0.0976 -2.518003,-0.1021 -4.439207,-0.01 -3.962683,0.19005 -4.998106,-0.0184 -5.259249,-1.0589 -0.533417,-2.1253 3.732234,-6.28634 9.115189,-8.89165 2.049148,-0.99177 9.228343,-3.46187 11.440848,-3.93637 0.689915,-0.14796 1.313144,-0.36408 1.384953,-0.48027 0.121541,-0.19666 -1.089834,-2.08423 -5.489638,-8.55397 -6.237041,-9.17133 -10.411364,-18.82714 -12.892017,-29.82112 -1.528555,-6.77437 -2.194049,-12.49112 -2.642725,-22.70161 -0.0073,-0.16518 -4.254962,5.28642 -7.792923,10.00161 -8.673468,11.55951 -12.729856,15.61042 -15.631543,15.61042 -2.019103,0 -3.102277,-1.38196 -4.06188,-5.18231 -1.643301,-6.50804 -1.397987,-16.402 0.622135,-25.09176 2.745088,-11.80828 6.324237,-20.15407 12.815734,-29.88347 2.366894,-3.54748 3.785445,-5.5412 4.260722,-5.98829 0.07735,-0.0728 0.550112,-0.66807 1.050587,-1.32292 0.852386,-1.1153 4.713771,-5.79461 5.021704,-6.08541 0.07705,-0.0728 1.268261,-1.44198 2.647141,-3.04271 2.951202,-3.42602 3.507253,-4.06239 5.086198,-5.82083 0.65333,-0.72761 1.430802,-1.62058 1.727716,-1.98438 0.296913,-0.3638 1.247848,-1.49489 2.113188,-2.51354 2.806907,-3.304187 7.66842,-10.041379 8.644707,-11.980026 2.290886,-4.549093 2.973679,-8.64177 3.474845,-20.828306 0.575287,-13.988908 1.401011,-19.999553 3.59459,-26.16588 4.685461,-13.17121 15.609351,-22.500617 29.821062,-25.468289 3.78137,-0.789622 10.22795,-1.085285 14.38008,-0.659521 10.30882,1.057076 19.08583,5.132029 25.80673,11.981428 5.864,5.976128 9.72391,13.378201 12.20932,23.413602 0.77203,3.117242 1.33528,6.219505 3.06811,16.89866 2.11734,13.048775 5.24038,19.980317 16.03367,35.586452 4.63036,6.69509 7.20453,10.71875 10.9179,17.06563 1.50716,2.57602 5.72094,11.31675 7.17241,14.87786 4.74753,11.64782 8.45242,25.8981 9.40809,36.18672 0.59386,6.39343 0.17846,14.06299 -0.95002,17.54019 -0.53481,1.64794 -1.6996,2.89327 -2.92035,3.12229 -2.03019,0.38086 -6.4138,-2.72915 -10.34699,-7.34083 -2.63614,-3.09089 -6.27914,-8.083 -8.30871,-11.38567 -0.87818,-1.42905 -1.69645,-2.65992 -1.81836,-2.73527 -0.25886,-0.15998 -0.38832,0.79024 -0.79377,5.82637 -0.75905,9.42822 -3.38198,20.14252 -7.17951,29.3273 -0.73143,1.76905 -1.38906,3.58856 -1.46141,4.04337 -0.1884,1.18431 0.82665,4.62416 2.06938,7.01284 0.67136,1.29043 1.82289,2.86306 3.11076,4.24831 2.57121,2.76562 2.94059,3.31003 2.94059,4.33396 0,1.95866 -1.75099,2.37317 -8.96556,2.12239 -2.99982,-0.10427 -6.19837,-0.27568 -7.10787,-0.38091 -1.71964,-0.19897 -2.07641,-0.0578 -1.05834,0.41876 0.71499,0.33468 3.64484,2.65872 5.02947,3.9895 1.30358,1.2529 3.31707,4.27214 3.93692,5.90346 0.27871,0.73351 0.49247,1.97556 0.49247,2.86153 0,1.37911 -0.0836,1.63124 -0.70258,2.1181 -0.81912,0.64432 -1.14557,0.61293 -5.51513,-0.53038 -5.89915,-1.54352 -7.57626,-1.32751 -10.31875,1.32903 -2.67054,2.58685 -3.13643,2.6787 -6.89436,1.35922 z m 4.03273,-2.47367 c 0.49156,-0.33432 1.00677,-0.99066 1.1752,-1.49711 0.3587,-1.07855 0.1596,-3.68994 -0.40664,-5.33346 -0.50176,-1.45637 -0.16928,-1.84664 0.73884,-0.86727 0.7138,0.7698 1.43831,2.58341 1.54258,3.86138 0.0684,0.83836 0.25819,0.87331 1.79602,0.33073 2.22169,-0.78385 4.51181,-0.54048 11.04636,1.17389 1.08497,0.28464 1.11223,-0.0275 0.16682,-1.91029 -1.06719,-2.12532 -2.8048,-4.43295 -4.32658,-5.74589 -2.09299,-1.80576 -5.56956,-4.23375 -6.05689,-4.23005 -0.23806,0.002 -1.50439,0.3022 -2.81408,0.66753 -4.05177,1.13022 -9.93325,2.50861 -14.02292,3.28643 -8.03717,1.52859 -9.6401,2.1232 -12.5677,4.66196 -1.86723,1.61922 -2.40244,2.50827 -1.94742,3.23486 0.44854,0.71625 1.91477,0.66719 5.28778,-0.17696 1.72806,-0.43247 3.61818,-0.88907 4.20026,-1.01466 0.91961,-0.19843 1.06784,-0.33129 1.13088,-1.01363 0.23211,-2.51228 0.90589,-2.70449 1.36155,-0.3884 0.23849,1.2122 0.42114,1.5875 0.77259,1.5875 0.93056,0 3.67479,0.84868 6.5169,2.01541 2.35534,0.96691 4.57715,1.75864 5.41525,1.92969 0.0637,0.013 0.5098,-0.24424 0.9912,-0.57166 z m -64.645308,-2.73603 c 1.896713,-0.49109 7.541859,-2.40277 8.08005,-2.73623 0.304333,-0.18857 0.265811,-0.39547 -0.219978,-1.18149 -0.792417,-1.28216 -2.457834,-2.6027 -4.382298,-3.47482 -0.873125,-0.39568 -2.8096,-1.30224 -4.303278,-2.01458 -1.493678,-0.71234 -3.280304,-1.51768 -3.97028,-1.78965 -0.689976,-0.27196 -2.185243,-0.92439 -3.322815,-1.44985 -1.137572,-0.52545 -2.127653,-0.95537 -2.200181,-0.95537 -0.305524,0 -0.847344,-0.74743 -0.676783,-0.93361 0.102211,-0.11157 -0.111818,-0.12029 -0.47562,-0.0194 -0.363802,0.10091 -1.316302,0.35977 -2.116667,0.57523 -0.800364,0.21547 -3.122083,0.92058 -5.159375,1.56693 -6.359216,2.01751 -9.455604,3.55425 -12.170466,6.0402 l -1.784632,1.63416 4.437152,-0.0248 4.437151,-0.0248 0.515554,-0.70774 c 1.488034,-2.04275 9.590237,-6.21208 10.433376,-5.36894 0.190366,0.19037 -1.162004,1.46737 -1.574328,1.48659 -0.194783,0.009 -0.749997,0.34508 -3.781557,2.28852 -1.591416,1.02021 -3.987083,3.13071 -4.373671,3.85306 -0.151167,0.28245 -0.194415,0.87976 -0.09611,1.32735 l 0.17874,0.8138 1.624812,-0.15181 c 0.893646,-0.0835 2.577311,-0.3608 3.741477,-0.61624 1.36532,-0.29958 3.30375,-0.46964 5.460871,-0.47908 l 3.344204,-0.0146 0.298025,-0.79375 c 0.380109,-1.01237 1.543642,-2.28535 2.923488,-3.19849 1.116582,-0.73892 1.686877,-0.68737 1.132054,0.10233 -1.082512,1.54077 -2.248547,3.72673 -2.353339,4.41179 -0.10856,0.70968 0.0076,0.88354 1.018373,1.52445 1.355232,0.85931 2.875742,0.9479 5.336049,0.31087 z m 14.915488,-9.26392 c -0.0879,-0.0879 -0.31612,-0.0973 -0.50712,-0.0209 -0.21106,0.0845 -0.14837,0.14715 0.15986,0.15985 0.27891,0.0115 0.43518,-0.051 0.34726,-0.13896 z m 20.57687,-4.37551 c 6.86245,-0.90772 13.84957,-3.71768 19.33935,-7.77756 8.97992,-6.64097 14.52926,-17.88852 16.83492,-34.12145 0.21704,-1.52807 0.33221,-5.17781 0.32144,-10.18646 -0.0141,-6.57096 -0.11018,-8.47463 -0.60739,-12.03854 -1.54696,-11.08836 -4.22408,-21.08465 -8.1133,-30.29479 -0.70667,-1.67349 -3.50818,-7.50756 -6.22557,-12.96459 -6.6942,-13.44322 -8.08481,-17.04642 -8.74922,-22.669973 -0.45099,-3.817293 0.19074,-7.3937 2.11983,-11.813936 0.30694,-0.703289 0.55806,-1.324379 0.55806,-1.380201 0,-0.05582 -0.74414,0.414153 -1.65364,1.04439 -3.47696,2.409336 -7.17619,3.94979 -11.18292,4.656853 -2.22984,0.393496 -3.46517,0.251778 -1.84781,-0.211982 1.89094,-0.542206 7.35101,-3.399943 9.71833,-5.08646 2.64126,-1.881674 5.93235,-5.192553 7.59447,-7.640134 3.53955,-5.212218 5.04203,-10.484305 5.04364,-17.697725 0.001,-5.669197 -0.97173,-9.435135 -3.41407,-13.213898 -6.08341,-9.412222 -19.01628,-9.646888 -25.56908,-0.46395 -1.21064,1.696556 -2.7581,4.827395 -3.28464,6.645492 -0.98805,3.411707 -1.36294,8.421255 -0.78575,10.499804 0.32865,1.183531 1.27043,1.686526 5.10518,2.726628 3.42079,0.92782 4.40129,1.669031 4.40129,3.327141 0,1.141344 -3.40171,5.581566 -6.71759,8.7684 -5.20692,5.00429 -9.93511,7.319973 -14.945995,7.319973 -2.349445,0 -4.977032,-0.724796 -8.593381,-2.370407 -2.235437,-1.01723 -4.715803,-1.980765 -8.340952,-3.240164 -4.555816,-1.582719 -5.058327,-1.878715 -5.058327,-2.979527 0,-0.99945 1.623532,-4.364671 2.779731,-5.761766 0.392206,-0.473922 1.534558,-1.709115 2.53856,-2.744874 1.004002,-1.035758 1.825459,-1.958493 1.825459,-2.050521 0,-0.09203 -0.329549,-0.167323 -0.732331,-0.167323 -0.402782,0 -1.163957,-0.293298 -1.6915,-0.651773 -3.421396,-2.324898 -2.944279,-10.50042 0.689479,-11.814404 1.129885,-0.408572 1.184357,-0.680226 0.212998,-1.062228 -0.497819,-0.195775 -1.04701,-0.203698 -1.738984,-0.02509 l -1.011379,0.261055 0.706606,-0.737538 c 1.960322,-2.046136 4.802735,-0.598812 6.249276,3.18206 0.659999,1.72506 0.980497,6.117416 0.53882,7.384411 -0.361199,1.036137 -0.160052,1.030095 0.931606,-0.02798 l 0.872492,-0.845652 v -4.162286 c 0,-4.808454 -0.312048,-7.454706 -1.216791,-10.318725 -1.428715,-4.522683 -4.132016,-6.558381 -7.276539,-5.479535 -4.314717,1.480325 -6.852503,9.030267 -6.852503,20.386273 0,6.965729 0.817088,11.611289 3.562239,20.253147 3.412184,10.741707 2.903896,14.002908 -5.020115,32.209305 -1.266707,2.91042 -2.759858,6.38668 -3.318113,7.72504 -7.590304,18.19691 -10.702162,39.43051 -8.311242,56.71133 2.750676,19.88102 12.905053,35.59844 27.835696,43.08538 10.189674,5.1096 21.92599,7.21072 32.47966,5.81476 z m 1.5875,-162.390219 c -2.42384,-1.124615 -3.65949,-3.289186 -3.64005,-6.376498 0.0266,-4.228474 2.68861,-7.408533 6.22898,-7.44128 1.72004,-0.01591 2.71882,0.357167 3.8504,1.438238 1.4273,1.363602 1.97135,2.686018 2.10478,5.116136 0.10538,1.919338 0.0408,2.325319 -0.58916,3.701247 -1.56496,3.418321 -4.97444,4.945058 -7.95495,3.562157 z m 4.82536,-8.63306 c 1.04159,-0.729558 1.01963,-2.921282 -0.0363,-3.626365 -1.06427,-0.710634 -2.73927,0.2479 -2.97535,1.702671 -0.28219,1.738957 1.57855,2.927496 3.01168,1.923694 z m 67.25283,131.968539 c -0.19258,-0.25467 -0.47505,-0.58209 -0.62771,-0.72761 -1.53908,-1.46707 -6.25862,-8.55868 -9.68456,-14.55208 -3.99042,-6.9809 -12.06289,-23.31967 -16.34028,-33.07292 -2.55896,-5.83489 -10.51567,-20.97524 -10.84831,-20.6426 -0.11957,0.11956 0.0579,0.58463 1.66811,4.37073 0.52605,1.23693 1.37829,3.32052 1.89388,4.63021 0.51558,1.30969 1.22367,3.00985 1.57353,3.77815 0.34986,0.7683 0.6361,1.44459 0.6361,1.50287 0,0.0908 1.99213,4.8135 5.47324,12.97523 1.45225,3.4049 7.53816,15.55346 9.80833,19.57916 3.43281,6.08742 3.9924,7.02032 5.95032,9.91983 3.13963,4.6495 4.90766,6.84684 8.46403,10.51923 1.99627,2.06139 2.81584,2.7546 2.03332,1.7198 z M 34.205676,180.50262 c 0.868172,-1.01865 2.522166,-3.09181 3.675542,-4.60703 1.153376,-1.51522 3.560158,-4.67037 5.348403,-7.01146 1.788246,-2.34108 3.745874,-4.91136 4.350285,-5.71172 0.604411,-0.80037 2.010472,-2.54314 3.12458,-3.87283 l 2.025651,-2.41762 0.183551,-2.47717 c 0.199751,-2.69581 0.933403,-7.7527 1.760466,-12.13446 0.599984,-3.17871 2.636215,-12.48756 2.784067,-12.72766 0.05417,-0.088 0.457493,-1.51673 0.896269,-3.175 0.438775,-1.65828 1.44808,-5.03559 2.242901,-7.50515 0.79482,-2.46955 1.409464,-4.52575 1.365876,-4.56934 -0.04359,-0.0436 -0.561954,1.20305 -1.151924,2.7703 -5.793797,15.39121 -8.397785,25.37606 -9.328931,35.77129 -0.223335,2.49329 -0.319728,2.83756 -1.000095,3.57187 -2.885033,3.11379 -9.633995,12.59665 -14.32457,20.12723 -1.35961,2.18281 -2.83664,4.43324 -3.282288,5.00096 -1.347674,1.71682 -0.35863,0.94935 1.330217,-1.03221 z m -8.663604,-9.84816 c 1.597185,-10.16987 6.364104,-23.193 12.181244,-33.27893 2.286295,-3.96404 9.572356,-14.72501 12.092267,-17.85937 0.17549,-0.21828 1.596447,-2.12328 3.157683,-4.23333 1.561236,-2.11005 3.330471,-4.4913 3.931633,-5.29167 1.014947,-1.35126 3.592464,-5.17465 4.72673,-7.01146 0.683002,-1.10603 0.18081,-0.57942 -3.179828,3.33447 -2.544266,2.96311 -5.089301,5.87857 -7.598192,8.70407 -1.69315,1.90682 -5.12538,6.01654 -6.518521,7.80521 -0.793392,1.01865 -1.541934,1.97115 -1.663427,2.11667 -1.353741,1.62147 -5.372647,7.6583 -7.045652,10.58333 -5.889993,10.29788 -9.902043,23.08833 -10.471005,33.38163 -0.08714,1.57646 -0.215371,3.14415 -0.284961,3.48377 -0.06959,0.33961 -0.01958,0.55138 0.111138,0.47059 0.130716,-0.0808 0.383117,-1.07303 0.560891,-2.20498 z M 168.08504,158.09572 c -0.0845,-0.21107 -0.14716,-0.14838 -0.15985,0.15985 -0.0115,0.27891 0.051,0.43518 0.13896,0.34726 0.0879,-0.0879 0.0973,-0.31612 0.0209,-0.50711 z m -0.56808,-2.37907 c -0.23043,-0.77428 -0.72634,-2.777 -1.10201,-4.45049 -0.95637,-4.26028 -4.06971,-13.5091 -5.92275,-17.59479 -0.63778,-1.40622 -4.75873,-12.49013 -4.75873,-12.79932 0,-0.0666 -0.058,-0.0632 -0.12885,0.008 -0.36774,0.36774 5.48695,19.66209 7.01262,23.11039 0.22427,0.50688 3.39651,8.91135 4.57617,12.124 0.68184,1.85689 0.91076,1.57566 0.32355,-0.39747 z M 102.59852,81.568168 c 3.97968,-1.299097 7.36807,-3.551418 11.28412,-7.500739 1.5023,-1.515066 2.66604,-2.820087 2.58608,-2.900045 -0.08,-0.07996 -0.29708,-0.02946 -0.4825,0.112223 -0.89648,0.685009 -8.09151,2.772216 -11.65075,3.379767 -4.32861,0.738878 -10.632929,1.479481 -14.880124,1.74805 -5.897303,0.372913 -6.018343,0.418389 -3.439583,1.292279 1.921942,0.651308 4.303721,1.545723 7.9375,2.980723 4.363562,1.723195 5.673768,1.857734 8.645257,0.887742 z M 86.941805,74.265264 c 12.035742,-0.789212 23.049025,-2.845959 28.512205,-5.324698 l 1.78258,-0.808789 -2.91041,-0.979817 c -3.88559,-1.308119 -6.38928,-2.602055 -9.28616,-4.799199 -1.32385,-1.004075 -3.05026,-2.125029 -3.83646,-2.491009 -2.753771,-1.281888 -6.021126,-0.739536 -8.308631,1.379159 -0.436562,0.404345 -2.043906,1.819394 -3.571874,3.144553 -4.72209,4.095318 -8.352296,8.130625 -8.865804,9.855153 -0.181781,0.610481 -0.152361,0.624808 0.965718,0.470287 0.634266,-0.08766 3.117742,-0.288194 5.518836,-0.44564 z M 85.135034,56.901198 c 0.924305,-0.836484 0.454078,-3.005282 -0.649934,-2.997649 -0.898954,0.0062 -1.25213,0.348867 -1.418913,1.376634 -0.119616,0.737106 -0.03159,1.062103 0.406249,1.499945 0.673427,0.673427 1.024039,0.698958 1.662598,0.12107 z M 81.914722,36.737812 c 0,-0.11812 0.850695,-1.192802 1.890434,-2.388182 5.934693,-6.823074 14.3475,-11.896327 23.372114,-14.094305 2.96481,-0.722089 2.56839,-0.924916 -0.7067,-0.361587 -5.7559,0.99004 -11.200833,3.130335 -15.95689,6.272339 -2.78879,1.842364 -6.804951,5.873235 -8.681105,8.7129 -1.733661,2.623995 -1.864339,3.080165 -0.711603,2.484063 0.436562,-0.225756 0.79375,-0.507108 0.79375,-0.625228 z"
       id="path1" /></g></svg>
